<svg enable-background="new 0 0 58 58" height="512" viewBox="0 0 58 58" width="512" xmlns="http://www.w3.org/2000/svg"><path d="m12.923 8.291c-.306 0-.608-.14-.804-.405-.329-.443-.235-1.069.208-1.398 4.847-3.591 10.599-5.488 16.634-5.488 5.503 0 10.97 1.584 15.039 4.302v-4.302c0-.553.448-1 1-1s1 .447 1 1v6.291c0 .388-.224.74-.575.905s-.765.11-1.064-.136c-3.814-3.168-9.571-5.06-15.4-5.06-5.603 0-10.944 1.762-15.444 5.095-.178.133-.387.196-.594.196z"/><path d="m7.292 46.078c-.306 0-.608-.14-.804-.405-3.591-4.847-5.488-10.599-5.488-16.634 0-5.503 1.584-10.971 4.302-15.039h-4.302c-.552 0-1-.447-1-1s.448-1 1-1h6.291c.388 0 .74.225.905.575s.112.766-.136 1.063c-3.168 3.814-5.06 9.572-5.06 15.401 0 5.604 1.762 10.943 5.095 15.444.329.443.235 1.069-.208 1.398-.18.134-.388.197-.595.197z"/><path d="m13 58c-.552 0-1-.447-1-1v-6.291c0-.388.224-.74.575-.905.351-.164.766-.11 1.064.136 3.814 3.168 9.571 5.06 15.4 5.06 5.603 0 10.944-1.762 15.444-5.095.444-.329 1.07-.235 1.399.209.329.443.235 1.069-.208 1.398-4.848 3.591-10.6 5.488-16.635 5.488-5.503 0-10.97-1.584-15.039-4.302v4.302c0 .553-.448 1-1 1z"/><path d="m57 46h-6.291c-.388 0-.74-.225-.905-.575s-.112-.766.136-1.063c3.168-3.813 5.06-9.571 5.06-15.4 0-5.604-1.762-10.943-5.095-15.444-.329-.443-.235-1.069.208-1.398.444-.329 1.07-.235 1.399.209 3.591 4.845 5.488 10.597 5.488 16.632 0 5.503-1.584 10.971-4.302 15.039h4.302c.552 0 1 .447 1 1s-.448 1-1 1z"/><path d="m32 49h-6c-.552 0-1-.447-1-1v-2.293c0-.603-.379-1.135-.923-1.295-.934-.274-1.572-.634-2.247-1.015l-.507-.282c-.502-.273-1.15-.167-1.576.257l-1.622 1.623c-.376.375-1.04.375-1.414 0l-3.706-3.706c-.391-.391-.391-1.023 0-1.414l1.623-1.623c.426-.425.531-1.072.257-1.575l-.285-.511c-.38-.674-.738-1.311-1.013-2.243-.16-.543-.692-.923-1.294-.923h-2.293c-.552 0-1-.447-1-1v-6c0-.553.448-1 1-1h2.293c.602 0 1.134-.38 1.294-.923.275-.933.634-1.569 1.014-2.244l.284-.51c.274-.502.168-1.15-.257-1.575l-1.623-1.623c-.39-.391-.39-1.023 0-1.414l3.706-3.706c.188-.188.442-.293.707-.293.265 0 .52.105.707.293l1.623 1.623c.425.424 1.073.529 1.575.257l.508-.283c.675-.38 1.312-.739 2.246-1.014.544-.16.923-.692.923-1.295v-2.293c0-.553.448-1 1-1h6c.552 0 1 .447 1 1v2.293c0 .603.379 1.135.923 1.295.933.274 1.571.634 2.246 1.014l.508.283c.502.273 1.15.168 1.576-.257l1.622-1.623c.375-.375 1.039-.376 1.414 0l3.706 3.706c.391.391.391 1.023 0 1.414l-1.623 1.623c-.426.425-.531 1.073-.257 1.575l.284.51c.38.675.739 1.312 1.013 2.244.161.543.693.923 1.295.923h2.293c.552 0 1 .447 1 1v6c0 .553-.448 1-1 1h-2.293c-.602 0-1.134.38-1.294.923-.275.933-.633 1.569-1.013 2.243l-.284.511c-.274.503-.168 1.15.257 1.575l1.623 1.623c.39.391.39 1.023 0 1.414l-3.706 3.706c-.188.188-.442.293-.707.293-.265 0-.52-.105-.707-.293l-1.623-1.623c-.425-.424-1.072-.53-1.575-.257l-.507.282c-.675.381-1.313.74-2.247 1.015-.545.16-.924.692-.924 1.295v2.293c0 .553-.448 1-1 1zm-5-2h4v-1.293c0-1.483.97-2.805 2.358-3.213.715-.211 1.182-.474 1.829-.839l.532-.296c1.275-.695 2.898-.448 3.946.599l.916.916 2.292-2.292-.916-.916c-1.048-1.047-1.294-2.67-.599-3.946l.298-.535c.364-.646.626-1.112.837-1.826.409-1.389 1.73-2.359 3.214-2.359h1.293v-4h-1.293c-1.483 0-2.804-.97-3.213-2.358-.21-.714-.473-1.181-.837-1.826l-.298-.535c-.695-1.276-.449-2.899.6-3.946l.916-.916-2.292-2.292-.916.916c-1.048 1.047-2.671 1.296-3.947.599l-.533-.297c-.646-.364-1.114-.627-1.828-.838-1.389-.409-2.359-1.731-2.359-3.214v-1.293h-4v1.293c0 1.483-.97 2.805-2.358 3.213-.715.211-1.182.474-1.828.838l-.533.297c-1.275.694-2.898.449-3.946-.599l-.916-.916-2.292 2.292.916.916c1.048 1.047 1.294 2.67.599 3.946l-.298.535c-.364.646-.627 1.112-.837 1.826-.409 1.389-1.73 2.359-3.214 2.359h-1.293v4h1.293c1.483 0 2.804.97 3.213 2.358.21.714.473 1.18.836 1.826l.298.535c.695 1.276.449 2.899-.599 3.946l-.916.916 2.292 2.292.916-.916c1.048-1.048 2.67-1.295 3.947-.599l.532.296c.647.365 1.114.628 1.829.839 1.389.409 2.359 1.731 2.359 3.214z"/><path d="m29 41c-6.617 0-12-5.383-12-12s5.383-12 12-12 12 5.383 12 12-5.383 12-12 12zm0-22c-5.514 0-10 4.486-10 10s4.486 10 10 10 10-4.486 10-10-4.486-10-10-10z"/><path d="m31 32h-4c-.552 0-1-.447-1-1v-4c0-.553.448-1 1-1h4c.552 0 1 .447 1 1v4c0 .553-.448 1-1 1zm-3-2h2v-2h-2z"/><path d="m29 28c-.552 0-1-.447-1-1v-5c0-.553.448-1 1-1s1 .447 1 1v5c0 .553-.448 1-1 1z"/><path d="m34 30h-3c-.552 0-1-.447-1-1s.448-1 1-1h3c.552 0 1 .447 1 1s-.448 1-1 1z"/></svg>